<?xml version="1.0" encoding="UTF-8" standalone="yes"?><svg xmlns="http://www.w3.org/2000/svg" xmlns:xlink="http://www.w3.org/1999/xlink" height="714px" style="width:855px;height:714px;" version="1.1" viewBox="0 0 855 714" width="855px"><defs><filter height="300%" id="f1" width="300%" x="-1" y="-1"><feGaussianBlur result="blurOut" stdDeviation="2.0"/><feColorMatrix in="blurOut" result="blurOut2" type="matrix" values="0 0 0 0 0 0 0 0 0 0 0 0 0 0 0 0 0 0 .4 0"/><feOffset dx="4.0" dy="4.0" in="blurOut2" result="blurOut3"/><feBlend in="SourceGraphic" in2="blurOut3" mode="normal"/></filter></defs><g><text fill="#000000" font-family="sans-serif" font-size="18" lengthAdjust="spacingAndGlyphs" textLength="40" x="425" y="16.708">Dia1</text><rect fill="#FFFFFF" filter="url(#f1)" height="270.5" style="stroke: #000000; stroke-width: 2.0;" width="317" x="30" y="53.4531"/><text fill="#000000" font-family="sans-serif" font-size="14" font-weight="bold" lengthAdjust="spacingAndGlyphs" textLength="34" x="171.5" y="68.4482">act1</text><rect fill="#FFFFFF" filter="url(#f1)" height="329.5" style="stroke: #000000; stroke-width: 2.0;" width="350" x="498" y="378.4531"/><text fill="#000000" font-family="sans-serif" font-size="14" font-weight="bold" lengthAdjust="spacingAndGlyphs" textLength="20" x="663" y="393.4482">ee</text><polygon fill="#FFFFFF" filter="url(#f1)" points="546,447.4531,556,437.4531,706,437.4531,706,657.9531,696,667.9531,546,667.9531,546,447.4531" style="stroke: #000000; stroke-width: 2.0;"/><line style="stroke: #000000; stroke-width: 2.0;" x1="696" x2="705" y1="447.4531" y2="438.4531"/><line style="stroke: #000000; stroke-width: 2.0;" x1="546" x2="696" y1="447.4531" y2="447.4531"/><line style="stroke: #000000; stroke-width: 2.0;" x1="696" x2="696" y1="447.4531" y2="667.9531"/><text fill="#000000" font-family="sans-serif" font-size="14" font-weight="bold" lengthAdjust="spacingAndGlyphs" textLength="20" x="612" y="463.4482">n1</text><ellipse cx="69" cy="106.4531" fill="#FEFECE" filter="url(#f1)" rx="8" ry="8" style="stroke: #A80036; stroke-width: 2.0;"/><path d="M69,114.4531 L69,141.4531 M56,122.4531 L82,122.4531 M69,141.4531 L56,156.4531 M69,141.4531 L82,156.4531 " fill="#FEFECE" filter="url(#f1)" style="stroke: #A80036; stroke-width: 2.0;"/><text fill="#000000" font-family="sans-serif" font-size="14" lengthAdjust="spacingAndGlyphs" textLength="18" x="60" y="176.4482">b1</text><path d="M157.5,117.9531 L157.5,141.9531 M157.5,129.9531 L174.5,129.9531 " fill="#FEFECE" filter="url(#f1)" style="stroke: #A80036; stroke-width: 2.0;"/><ellipse cx="186.5" cy="129.9531" fill="#FEFECE" filter="url(#f1)" rx="12" ry="12" style="stroke: #A80036; stroke-width: 2.0;"/><text fill="#000000" font-family="sans-serif" font-size="14" lengthAdjust="spacingAndGlyphs" textLength="18" x="169" y="158.9482">bb</text><ellipse cx="288" cy="129.9531" fill="#FEFECE" filter="url(#f1)" rx="12" ry="12" style="stroke: #A80036; stroke-width: 2.0;"/><polygon fill="#A80036" points="284,117.9531,290,112.9531,288,117.9531,290,122.9531,284,117.9531" style="stroke: #A80036; stroke-width: 1.0;"/><text fill="#000000" font-family="sans-serif" font-size="14" lengthAdjust="spacingAndGlyphs" textLength="16" x="280" y="158.9482">cc</text><rect fill="#FEFECE" filter="url(#f1)" height="36.2969" style="stroke: #A80036; stroke-width: 1.5;" width="59" x="244.5" y="263.9531"/><rect fill="#FEFECE" height="5" style="stroke: #A80036; stroke-width: 1.5;" width="10" x="239.5" y="268.9531"/><rect fill="#FEFECE" height="5" style="stroke: #A80036; stroke-width: 1.5;" width="10" x="239.5" y="290.25"/><text fill="#000000" font-family="sans-serif" font-size="14" lengthAdjust="spacingAndGlyphs" textLength="39" x="254.5" y="286.9482">cmp1</text><polygon fill="#FEFECE" filter="url(#f1)" points="730,592.4531,740,582.4531,824,582.4531,824,659.3438,814,669.3438,730,669.3438,730,592.4531" style="stroke: #000000; stroke-width: 1.5;"/><line style="stroke: #000000; stroke-width: 1.5;" x1="814" x2="823" y1="592.4531" y2="583.4531"/><line style="stroke: #000000; stroke-width: 1.5;" x1="730" x2="814" y1="592.4531" y2="592.4531"/><line style="stroke: #000000; stroke-width: 1.5;" x1="814" x2="814" y1="592.4531" y2="669.3438"/><text fill="#000000" font-family="sans-serif" font-size="14" lengthAdjust="spacingAndGlyphs" textLength="18" x="763" y="615.4482">n2</text><line style="stroke: #000000; stroke-width: 1.0;" x1="730" x2="814" y1="618.75" y2="618.75"/><line style="stroke: #000000; stroke-width: 1.0;" x1="814" x2="824" y1="618.75" y2="608.75"/><line style="stroke: #000000; stroke-width: 1.0;" x1="730" x2="814" y1="620.75" y2="620.75"/><line style="stroke: #000000; stroke-width: 1.0;" x1="814" x2="824" y1="620.75" y2="610.75"/><text fill="#000000" font-family="sans-serif" font-size="14" lengthAdjust="spacingAndGlyphs" textLength="42" x="751" y="635.7451">k1: v1</text><text fill="#000000" font-family="sans-serif" font-size="14" lengthAdjust="spacingAndGlyphs" textLength="42" x="751" y="652.042">k2: v2</text><rect fill="#FEFECE" filter="url(#f1)" height="36.2969" style="stroke: #A80036; stroke-width: 1.5;" width="28" x="570" y="485.4531"/><rect fill="#FEFECE" height="5" style="stroke: #A80036; stroke-width: 1.5;" width="10" x="565" y="490.4531"/><rect fill="#FEFECE" height="5" style="stroke: #A80036; stroke-width: 1.5;" width="10" x="565" y="511.75"/><text fill="#000000" font-family="sans-serif" font-size="14" lengthAdjust="spacingAndGlyphs" textLength="8" x="580" y="508.4482">a</text><rect fill="#FEFECE" filter="url(#f1)" height="36.2969" style="stroke: #A80036; stroke-width: 1.5;" width="29" x="633.5" y="485.4531"/><rect fill="#FEFECE" height="5" style="stroke: #A80036; stroke-width: 1.5;" width="10" x="628.5" y="490.4531"/><rect fill="#FEFECE" height="5" style="stroke: #A80036; stroke-width: 1.5;" width="10" x="628.5" y="511.75"/><text fill="#000000" font-family="sans-serif" font-size="14" lengthAdjust="spacingAndGlyphs" textLength="9" x="643.5" y="508.4482">b</text><rect fill="#FEFECE" filter="url(#f1)" height="36.2969" style="stroke: #A80036; stroke-width: 1.5;" width="28" x="570" y="607.9531"/><rect fill="#FEFECE" height="5" style="stroke: #A80036; stroke-width: 1.5;" width="10" x="565" y="612.9531"/><rect fill="#FEFECE" height="5" style="stroke: #A80036; stroke-width: 1.5;" width="10" x="565" y="634.25"/><text fill="#000000" font-family="sans-serif" font-size="14" lengthAdjust="spacingAndGlyphs" textLength="8" x="580" y="630.9482">c</text><ellipse cx="393" cy="106.4531" fill="#FEFECE" filter="url(#f1)" rx="8" ry="8" style="stroke: #A80036; stroke-width: 2.0;"/><path d="M393,114.4531 L393,141.4531 M380,122.4531 L406,122.4531 M393,141.4531 L380,156.4531 M393,141.4531 L406,156.4531 " fill="#FEFECE" filter="url(#f1)" style="stroke: #A80036; stroke-width: 2.0;"/><text fill="#000000" font-family="sans-serif" font-size="14" lengthAdjust="spacingAndGlyphs" textLength="30" x="378" y="176.4482">acr1</text><ellipse cx="612" cy="250.4531" fill="#FEFECE" filter="url(#f1)" rx="8" ry="8" style="stroke: #A80036; stroke-width: 2.0;"/><path d="M612,258.4531 L612,285.4531 M599,266.4531 L625,266.4531 M612,285.4531 L599,300.4531 M612,285.4531 L625,300.4531 " fill="#FEFECE" filter="url(#f1)" style="stroke: #A80036; stroke-width: 2.0;"/><text fill="#000000" font-family="sans-serif" font-size="14" lengthAdjust="spacingAndGlyphs" textLength="30" x="597" y="320.4482">acr2</text><ellipse cx="392.8848" cy="281.9768" fill="#FEFECE" filter="url(#f1)" rx="21.3848" ry="14.5236" style="stroke: #A80036; stroke-width: 1.5;"/><text fill="#000000" font-family="sans-serif" font-size="14" lengthAdjust="spacingAndGlyphs" textLength="26" x="379.8848" y="286.6252">uc1</text><ellipse cx="505.8848" cy="281.9768" fill="#FEFECE" filter="url(#f1)" rx="21.3848" ry="14.5236" style="stroke: #A80036; stroke-width: 1.5;"/><text fill="#000000" font-family="sans-serif" font-size="14" lengthAdjust="spacingAndGlyphs" textLength="26" x="492.8848" y="286.6252">uc2</text><path d="M414.629,281.9531 C437.829,281.9531 461.028,281.9531 484.228,281.9531 " fill="none" style="stroke: #A80036; stroke-width: 1.0;"/><path d="M393,179.6451 C393,209.1481 393,247.2481 393,267.2691 " fill="none" style="stroke: #A80036; stroke-width: 1.0;"/><path d="M527.531,281.9531 C550.628,281.9531 573.725,281.9531 596.822,281.9531 " fill="none" style="stroke: #A80036; stroke-width: 1.0;"/><path d="M84.156,137.9531 C100.6575,137.9531 127.463,137.9531 148.209,137.9531 " fill="none" style="stroke: #A80036; stroke-width: 1.0;"/><polygon fill="#A80036" points="153.343,137.9531,144.343,133.9531,148.343,137.9531,144.343,141.9531,153.343,137.9531" style="stroke: #A80036; stroke-width: 1.0;"/><text fill="#000000" font-family="sans-serif" font-size="13" lengthAdjust="spacingAndGlyphs" textLength="8" x="114.75" y="131.02">1</text><path d="M202.686,137.9531 C221.859,137.9531 248.18,137.9531 266.496,137.9531 " fill="none" style="stroke: #A80036; stroke-width: 1.0;"/><polygon fill="#A80036" points="271.907,137.9531,262.907,133.9531,266.907,137.9531,262.907,141.9531,271.907,137.9531" style="stroke: #A80036; stroke-width: 1.0;"/><text fill="#000000" font-family="sans-serif" font-size="13" lengthAdjust="spacingAndGlyphs" textLength="8" x="233.25" y="131.02">2</text><path d="M207.567,153.7741 C218.363,157.7841 230.747,160.3571 242.25,157.9531 C252.432,155.8251 263.121,151.2971 271.604,147.0871 " fill="none" style="stroke: #A80036; stroke-width: 1.0;"/><polygon fill="#A80036" points="202.728,151.8431,209.6051,158.8933,207.3721,153.6959,212.5695,151.4629,202.728,151.8431" style="stroke: #A80036; stroke-width: 1.0;"/><text fill="#000000" font-family="sans-serif" font-size="13" lengthAdjust="spacingAndGlyphs" textLength="8" x="233.25" y="154.02">3</text><path d="M285.719,162.0841 C283.09,188.7551 278.797,232.2951 276.202,258.6231 " fill="none" style="stroke: #A80036; stroke-width: 1.0; stroke-dasharray: 1.0,3.0;"/><rect fill="#FFFFFF" height="10" style="stroke: #A80036; stroke-width: 1.5;" width="10" x="270.706" y="258.6491"/><path d="M288.6785,204.1391 A10,10 0 0 0 274.6046 202.7515" fill="#FFFFFF" style="stroke: #A80036; stroke-width: 1.5;"/><ellipse cx="280.9478" cy="210.4823" fill="#FFFFFF" rx="6" ry="6" style="stroke: #A80036; stroke-width: 1.5;"/><path d="M347.178,160.4589 C347.3024,160.7863 347.428,161.1164 347.5545,161.4492 C347.8077,162.1148 348.0649,162.7914 348.3262,163.4783 C349.371,166.2259 350.4789,169.1391 351.6364,172.183 C353.9514,178.2707 356.4652,184.881 359.0714,191.7343 C369.496,219.1471 381.3985,250.4461 387.971,267.7291 " fill="none" style="stroke: #A80036; stroke-width: 1.0;"/><path d="M706.0402,516.7171 C706.9526,518.1087 707.9283,519.597 708.9597,521.1702 C711.0225,524.3166 713.308,527.8028 715.7554,531.5358 C725.5448,546.4676 737.9225,565.3476 748.984,582.2201 " fill="none" style="stroke: #A80036; stroke-width: 1.0;"/><path d="M506,296.6841 C506,308.5099 506,326.9769 506,348.1004 C506,353.3812 506,358.8281 506,364.3787 C506,367.154 506,369.9553 506,372.7747 C506,374.1844 506,375.5987 506,377.0165 C506,377.3709 506,377.7256 506,378.0805 " fill="none" style="stroke: #A80036; stroke-width: 1.0;"/></g></svg>
